<svg width="120" height="40" fill="none" xmlns="http://www.w3.org/2000/svg"><path fill-rule="evenodd" clip-rule="evenodd" d="M13.378.433 0 39.999h10.23L12 34.38h7.87V40h10.032V.433H13.378Zm6.295 22.486H15.54l4.132-9.513v9.513ZM59.606 0H43.672C38.36 0 36.59 7.568 36.59 7.568l-3.738 23.567S31.476 40 38.361 40h14.95l1.574-11.675H46.82s-3.541.865-2.95-3.46c.196-.649 1.573-9.297 1.573-9.297s.393-3.027 2.164-3.027h10.032L59.606 0Zm4.722.217-7.476 39.782h9.837l3.344-16.864L70.82 40h5.312l5.9-16.864L79.083 40h8.852l7.279-40h-12.59l-6.1 16.649V.217H64.329Zm28.525 39.782L99.737 0H120l-1.574 11.46h-10.622l-.591 3.891h10.23l-1.574 8.65-10.426-.217-.591 3.891h10.426L113.115 40H92.853Z" fill="#fff"/></svg>